<svg xmlns="http://www.w3.org/2000/svg" width="2732" height="2732" viewBox="0 0 2732 2732"><defs><linearGradient id="bg" x1="0" y1="0" x2="1" y2="1"><stop offset="0" stop-color="#5aa0ff"/><stop offset="1" stop-color="#1667d8"/></linearGradient><filter id="sh" x="-30%" y="-30%" width="160%" height="160%"><feDropShadow dx="0" dy="18" stdDeviation="26" flood-color="#0a2e66" flood-opacity="0.28"/></filter></defs><rect width="2732" height="2732" fill="#12161d"/><g transform="translate(1366 1366) scale(0.78) translate(-512 -512)"><rect width="1024" height="1024" rx="230" fill="url(#bg)"/><g filter="url(#sh)"><rect x="248" y="228" width="528" height="568" rx="52" fill="#ffffff"/><path d="M248 280a52 52 0 0 1 52-52h424a52 52 0 0 1 52 52v70H248z" fill="#1a73e8"/><g fill="#ffffff" opacity="0.9"><rect x="300" y="303" width="120" height="20" rx="10"/><rect x="452" y="303" width="120" height="20" rx="10"/><rect x="604" y="303" width="120" height="20" rx="10"/></g><rect x="292" y="392" width="132" height="86" rx="16" fill="#e9eef5"/><rect x="446" y="392" width="132" height="86" rx="16" fill="#34a853"/><rect x="600" y="392" width="132" height="86" rx="16" fill="#e9eef5"/><rect x="292" y="500" width="132" height="86" rx="16" fill="#e9eef5"/><rect x="446" y="500" width="132" height="86" rx="16" fill="#e9eef5"/><rect x="600" y="500" width="132" height="86" rx="16" fill="#e9eef5"/><rect x="292" y="608" width="132" height="86" rx="16" fill="#e9eef5"/><rect x="446" y="608" width="132" height="86" rx="16" fill="#e9eef5"/><rect x="600" y="608" width="132" height="86" rx="16" fill="#1a73e8" opacity="0.85"/></g></g></svg>
